<?xml version="1.0" encoding="UTF-8" standalone="no"?>
<!-- Created with Inkscape (http://www.inkscape.org/) -->

<svg
   xmlns:dc="http://purl.org/dc/elements/1.1/"
   xmlns:cc="http://creativecommons.org/ns#"
   xmlns:rdf="http://www.w3.org/1999/02/22-rdf-syntax-ns#"
   xmlns:svg="http://www.w3.org/2000/svg"
   xmlns="http://www.w3.org/2000/svg"
   xmlns:sodipodi="http://sodipodi.sourceforge.net/DTD/sodipodi-0.dtd"
   xmlns:inkscape="http://www.inkscape.org/namespaces/inkscape"
   width="60mm"
   height="60mm"
   viewBox="0 0 60 60"
   version="1.1"
   id="svg8"
   inkscape:version="0.92.3 (2405546, 2018-03-11)"
   sodipodi:docname="focus calibration lines 31-51.svg">
  <defs
     id="defs2" />
  <sodipodi:namedview
     id="base"
     pagecolor="#ffffff"
     bordercolor="#666666"
     borderopacity="1.0"
     inkscape:pageopacity="0.0"
     inkscape:pageshadow="2"
     inkscape:zoom="2.8284271"
     inkscape:cx="193.94466"
     inkscape:cy="88.995078"
     inkscape:document-units="mm"
     inkscape:current-layer="layer1"
     showgrid="false"
     inkscape:window-width="1920"
     inkscape:window-height="1017"
     inkscape:window-x="1912"
     inkscape:window-y="-8"
     inkscape:window-maximized="1" />
  <metadata
     id="metadata5">
    <rdf:RDF>
      <cc:Work
         rdf:about="">
        <dc:format>image/svg+xml</dc:format>
        <dc:type
           rdf:resource="http://purl.org/dc/dcmitype/StillImage" />
        <dc:title></dc:title>
      </cc:Work>
    </rdf:RDF>
  </metadata>
  <g
     inkscape:label="Layer 1"
     inkscape:groupmode="layer"
     id="layer1"
     transform="translate(0,-237)">
    <g
       aria-label="51"
       style="font-style:normal;font-weight:normal;font-size:3.52777767px;line-height:1.25;font-family:sans-serif;letter-spacing:0px;word-spacing:0px;fill:#000000;fill-opacity:1;stroke:none;stroke-width:0.26458332"
       id="text4771">
      <path
         d="m 55.872218,240.49044 q 0,0.17915 -0.06546,0.34279 -0.06546,0.16364 -0.179145,0.27561 -0.124023,0.12057 -0.296278,0.18603 -0.170532,0.0637 -0.396186,0.0637 -0.210151,0 -0.404798,-0.0448 -0.194648,-0.0431 -0.329007,-0.10508 v -0.36345 h 0.02412 q 0.141248,0.0896 0.330729,0.1533 0.18948,0.062 0.37207,0.062 0.122301,0 0.235989,-0.0344 0.115411,-0.0344 0.204983,-0.12057 0.07579,-0.0741 0.113688,-0.17743 0.03962,-0.10335 0.03962,-0.23943 0,-0.13264 -0.04651,-0.22393 -0.04479,-0.0913 -0.125746,-0.14642 -0.08957,-0.0655 -0.218763,-0.0913 -0.127469,-0.0276 -0.285943,-0.0276 -0.151584,0 -0.292833,0.0207 -0.139527,0.0207 -0.241157,0.0413 v -1.3212 h 1.543403 v 0.30145 h -1.210951 v 0.68213 q 0.07407,-0.007 0.151584,-0.0103 0.07751,-0.003 0.134359,-0.003 0.208428,0 0.36518,0.0362 0.156752,0.0345 0.287665,0.12402 0.137804,0.0947 0.213596,0.24461 0.07579,0.14986 0.07579,0.37551 z"
         style="stroke-width:0.26458332"
         id="path5211"
         inkscape:connector-curvature="0" />
      <path
         d="m 57.992674,241.30521 h -1.388373 v -0.26183 h 0.53399 v -1.7191 h -0.53399 v -0.23427 q 0.10852,0 0.232544,-0.0172 0.124023,-0.0189 0.187758,-0.0534 0.07924,-0.0431 0.124023,-0.10852 0.04651,-0.0672 0.0534,-0.17915 h 0.266995 v 2.31166 h 0.523654 z"
         style="stroke-width:0.26458332"
         id="path5213"
         inkscape:connector-curvature="0" />
    </g>
    <g
       aria-label="50"
       style="font-style:normal;font-weight:normal;font-size:3.52777767px;line-height:1.25;font-family:sans-serif;letter-spacing:0px;word-spacing:0px;fill:#000000;fill-opacity:1;stroke:none;stroke-width:0.26458332"
       id="text4775">
      <path
         d="m 55.729243,243.31672 q 0,0.17914 -0.06546,0.34279 -0.06546,0.16364 -0.179145,0.2756 -0.124024,0.12058 -0.296279,0.18604 -0.170532,0.0637 -0.396186,0.0637 -0.21015,0 -0.404798,-0.0448 -0.194648,-0.0431 -0.329007,-0.10508 v -0.36346 h 0.02412 q 0.141249,0.0896 0.330729,0.15331 0.18948,0.062 0.37207,0.062 0.122301,0 0.235989,-0.0344 0.115411,-0.0344 0.204983,-0.12058 0.07579,-0.0741 0.113689,-0.17742 0.03962,-0.10335 0.03962,-0.23943 0,-0.13264 -0.04651,-0.22393 -0.04479,-0.0913 -0.125746,-0.14642 -0.08957,-0.0655 -0.218763,-0.0913 -0.127469,-0.0276 -0.285943,-0.0276 -0.151584,0 -0.292833,0.0207 -0.139527,0.0207 -0.241157,0.0413 v -1.3212 h 1.543403 v 0.30145 h -1.210951 v 0.68213 q 0.07407,-0.007 0.151584,-0.0103 0.07751,-0.003 0.134359,-0.003 0.208428,0 0.36518,0.0362 0.156752,0.0345 0.287665,0.12402 0.137804,0.0947 0.213596,0.2446 0.07579,0.14987 0.07579,0.37552 z"
         style="stroke-width:0.26458332"
         id="path5206"
         inkscape:connector-curvature="0" />
      <path
         d="m 57.992671,242.84819 q 0,0.69074 -0.217041,1.01458 -0.215318,0.32211 -0.670071,0.32211 -0.461643,0 -0.675239,-0.32728 -0.211873,-0.32728 -0.211873,-1.00597 0,-0.68385 0.215318,-1.00941 0.215319,-0.32728 0.671794,-0.32728 0.461643,0 0.673516,0.33245 0.213596,0.33073 0.213596,1.0008 z m -0.45303,0.78203 q 0.06029,-0.13952 0.08096,-0.32728 0.02239,-0.18948 0.02239,-0.45475 0,-0.26183 -0.02239,-0.45476 -0.02067,-0.19292 -0.08268,-0.32728 -0.06029,-0.13264 -0.165364,-0.19982 -0.103353,-0.0672 -0.266995,-0.0672 -0.16192,0 -0.268717,0.0672 -0.105076,0.0672 -0.167088,0.20327 -0.05857,0.12746 -0.08096,0.33245 -0.02067,0.20498 -0.02067,0.44958 0,0.26872 0.01895,0.44959 0.01895,0.18086 0.08096,0.32384 0.05684,0.13435 0.160197,0.20498 0.105075,0.0706 0.27733,0.0706 0.161919,0 0.268717,-0.0672 0.106798,-0.0672 0.165365,-0.20326 z"
         style="stroke-width:0.26458332"
         id="path5208"
         inkscape:connector-curvature="0" />
    </g>
    <g
       aria-label="49"
       style="font-style:normal;font-weight:normal;font-size:3.52777767px;line-height:1.25;font-family:sans-serif;letter-spacing:0px;word-spacing:0px;fill:#000000;fill-opacity:1;stroke:none;stroke-width:0.26458332"
       id="text4775-8">
      <path
         d="m 55.808481,246.21621 h -0.380684 v 0.72175 h -0.330729 v -0.72175 h -1.228176 v -0.39619 l 1.241957,-1.44694 h 0.316948 v 1.56752 h 0.380684 z m -0.711413,-0.27561 v -1.15755 l -0.99391,1.15755 z"
         style="stroke-width:0.26458332"
         id="path5201"
         inkscape:connector-curvature="0" />
      <path
         d="m 57.992671,245.50135 q 0,0.3359 -0.07751,0.60978 -0.07579,0.27389 -0.230821,0.46682 -0.156752,0.19637 -0.392741,0.30316 -0.235989,0.1068 -0.55466,0.1068 -0.08957,0 -0.16881,-0.0103 -0.07924,-0.009 -0.141249,-0.0293 v -0.329 h 0.01723 q 0.04995,0.0258 0.141249,0.0499 0.0913,0.0224 0.20326,0.0224 0.380683,0 0.596002,-0.22737 0.217041,-0.2291 0.251492,-0.63046 -0.160197,0.0965 -0.301446,0.13781 -0.141249,0.0413 -0.308336,0.0413 -0.158475,0 -0.287666,-0.031 -0.127468,-0.031 -0.256659,-0.12057 -0.151584,-0.10508 -0.229099,-0.267 -0.07579,-0.16192 -0.07579,-0.38757 0,-0.39274 0.258382,-0.63907 0.258382,-0.24632 0.630452,-0.24632 0.186036,0 0.34451,0.0586 0.158474,0.0569 0.27733,0.17226 0.146417,0.14297 0.225654,0.36862 0.07924,0.22394 0.07924,0.5805 z m -0.347955,-0.0741 q 0,-0.26699 -0.05512,-0.42891 -0.05512,-0.16192 -0.151584,-0.25149 -0.08096,-0.0775 -0.173978,-0.11025 -0.09302,-0.0344 -0.201538,-0.0344 -0.248047,0 -0.392741,0.15503 -0.142971,0.15503 -0.142971,0.43581 0,0.16364 0.04651,0.26699 0.04651,0.10335 0.156752,0.18087 0.07751,0.0534 0.170532,0.0724 0.09302,0.0172 0.206706,0.0172 0.134358,0 0.272162,-0.0362 0.137804,-0.0362 0.258382,-0.10508 0.0017,-0.0362 0.0034,-0.0706 0.0034,-0.0362 0.0034,-0.0913 z"
         style="stroke-width:0.26458332"
         id="path5203"
         inkscape:connector-curvature="0" />
    </g>
    <g
       aria-label="48
"
       style="font-style:normal;font-weight:normal;font-size:3.52777767px;line-height:1.25;font-family:sans-serif;letter-spacing:0px;word-spacing:0px;fill:#000000;fill-opacity:1;stroke:none;stroke-width:0.26458332"
       id="text4775-3">
      <path
         d="m 55.786088,249.02009 h -0.380683 v 0.72175 h -0.330729 v -0.72175 H 53.8465 v -0.39619 l 1.241956,-1.44694 h 0.316949 v 1.56752 h 0.380683 z m -0.711412,-0.27561 v -1.15755 l -0.99391,1.15755 z"
         style="stroke-width:0.26458332"
         id="path5196"
         inkscape:connector-curvature="0" />
      <path
         d="m 57.992672,249.02698 q 0,0.33245 -0.260105,0.55294 -0.258382,0.22048 -0.651123,0.22048 -0.416856,0 -0.664903,-0.21532 -0.246325,-0.21531 -0.246325,-0.55121 0,-0.2136 0.124024,-0.38585 0.124023,-0.17398 0.349677,-0.27561 v -0.0103 q -0.206706,-0.11025 -0.306613,-0.24116 -0.09819,-0.13091 -0.09819,-0.32728 0,-0.28939 0.237712,-0.48232 0.237711,-0.19292 0.604614,-0.19292 0.384128,0 0.613227,0.18431 0.229099,0.18431 0.229099,0.46853 0,0.17398 -0.108521,0.34279 -0.10852,0.16709 -0.318671,0.26183 v 0.0103 q 0.241157,0.10335 0.368625,0.25494 0.127469,0.15158 0.127469,0.38585 z m -0.408244,-1.25229 q 0,-0.18432 -0.142971,-0.29284 -0.141249,-0.11024 -0.361735,-0.11024 -0.217041,0 -0.356568,0.10335 -0.137804,0.10336 -0.137804,0.27906 0,0.12402 0.0689,0.21531 0.07062,0.0896 0.211874,0.1602 0.06373,0.031 0.18259,0.081 0.120578,0.05 0.234266,0.0827 0.170532,-0.11368 0.235989,-0.23599 0.06546,-0.1223 0.06546,-0.28249 z m 0.0534,1.28502 q 0,-0.15848 -0.07062,-0.25322 -0.0689,-0.0965 -0.272163,-0.19292 -0.08096,-0.0379 -0.177422,-0.0706 -0.09646,-0.0327 -0.25666,-0.0913 -0.155029,0.0844 -0.249769,0.2291 -0.09302,0.14469 -0.09302,0.32728 0,0.23255 0.160197,0.38413 0.160197,0.15158 0.406521,0.15158 0.251492,0 0.401354,-0.12919 0.151584,-0.12919 0.151584,-0.35484 z"
         style="stroke-width:0.26458332"
         id="path5198"
         inkscape:connector-curvature="0" />
    </g>
    <g
       aria-label="47"
       style="font-style:normal;font-weight:normal;font-size:3.52777767px;line-height:1.25;font-family:sans-serif;letter-spacing:0px;word-spacing:0px;fill:#000000;fill-opacity:1;stroke:none;stroke-width:0.26458332"
       id="text4775-81">
      <path
         d="m 55.798147,251.82484 h -0.380684 v 0.72175 h -0.330729 v -0.72175 h -1.228176 v -0.39619 l 1.241957,-1.44694 h 0.316948 v 1.56752 h 0.380684 z m -0.711413,-0.27561 v -1.15755 l -0.99391,1.15755 z"
         style="stroke-width:0.26458332"
         id="path5191"
         inkscape:connector-curvature="0" />
      <path
         d="m 57.992672,250.36584 -1.160997,2.18075 H 56.46305 l 1.235067,-2.26343 h -1.460721 v -0.30145 h 1.755276 z"
         style="stroke-width:0.26458332"
         id="path5193"
         inkscape:connector-curvature="0" />
    </g>
    <g
       aria-label="46"
       style="font-style:normal;font-weight:normal;font-size:3.52777767px;line-height:1.25;font-family:sans-serif;letter-spacing:0px;word-spacing:0px;fill:#000000;fill-opacity:1;stroke:none;stroke-width:0.26458332"
       id="text4775-0">
      <path
         d="m 55.767141,254.62701 h -0.380683 v 0.72174 h -0.33073 v -0.72174 h -1.228176 v -0.39619 l 1.241957,-1.44694 h 0.316949 v 1.56752 h 0.380683 z m -0.711413,-0.27561 v -1.15755 l -0.99391,1.15755 z"
         style="stroke-width:0.26458332"
         id="path5186"
         inkscape:connector-curvature="0" />
      <path
         d="m 57.992672,254.51676 q 0,0.39102 -0.258382,0.63907 -0.256659,0.24632 -0.630452,0.24632 -0.189481,0 -0.34451,-0.0586 -0.155029,-0.0586 -0.273885,-0.17398 -0.148139,-0.14297 -0.229099,-0.37896 -0.07924,-0.23599 -0.07924,-0.56844 0,-0.34107 0.07235,-0.60462 0.07407,-0.26355 0.234267,-0.46853 0.151584,-0.19465 0.391018,-0.30317 0.239434,-0.11024 0.558105,-0.11024 0.101631,0 0.170533,0.009 0.0689,0.009 0.139526,0.031 v 0.32901 h -0.01723 q -0.04823,-0.0258 -0.146416,-0.0482 -0.09646,-0.0241 -0.198093,-0.0241 -0.370348,0 -0.590834,0.23254 -0.220486,0.23082 -0.25666,0.62529 0.144694,-0.0879 0.284221,-0.13264 0.141249,-0.0465 0.325561,-0.0465 0.163642,0 0.287666,0.031 0.125746,0.0293 0.256659,0.12058 0.151585,0.10507 0.227377,0.26527 0.07751,0.1602 0.07751,0.38929 z m -0.349677,0.0138 q 0,-0.16019 -0.04823,-0.26527 -0.04651,-0.10507 -0.15503,-0.18259 -0.07924,-0.0551 -0.175699,-0.0723 -0.09646,-0.0172 -0.201538,-0.0172 -0.146417,0 -0.272163,0.0344 -0.125746,0.0344 -0.258382,0.1068 -0.0034,0.0379 -0.0052,0.0741 -0.0017,0.0345 -0.0017,0.0879 0,0.27216 0.05512,0.43064 0.05684,0.15675 0.155029,0.24804 0.07924,0.0758 0.170533,0.11197 0.09302,0.0344 0.201538,0.0344 0.249769,0 0.392741,-0.15159 0.142971,-0.1533 0.142971,-0.43925 z"
         style="stroke-width:0.26458332"
         id="path5188"
         inkscape:connector-curvature="0" />
    </g>
    <g
       aria-label="45"
       style="font-style:normal;font-weight:normal;font-size:3.52777767px;line-height:1.25;font-family:sans-serif;letter-spacing:0px;word-spacing:0px;fill:#000000;fill-opacity:1;stroke:none;stroke-width:0.26458332"
       id="text4775-82">
      <path
         d="m 55.825708,257.40765 h -0.380683 v 0.72174 h -0.33073 v -0.72174 h -1.228176 v -0.39619 l 1.241957,-1.44694 h 0.316949 v 1.56752 h 0.380683 z m -0.711413,-0.27561 v -1.15755 l -0.99391,1.15755 z"
         style="stroke-width:0.26458332"
         id="path5181"
         inkscape:connector-curvature="0" />
      <path
         d="m 57.992673,257.31463 q 0,0.17914 -0.06546,0.34279 -0.06546,0.16364 -0.179145,0.2756 -0.124023,0.12058 -0.296278,0.18604 -0.170532,0.0637 -0.396186,0.0637 -0.210151,0 -0.404799,-0.0448 -0.194648,-0.0431 -0.329007,-0.10508 v -0.36346 h 0.02412 q 0.141249,0.0896 0.330729,0.15331 0.189481,0.062 0.372071,0.062 0.1223,0 0.235989,-0.0344 0.11541,-0.0344 0.204983,-0.12058 0.07579,-0.0741 0.113688,-0.17742 0.03962,-0.10335 0.03962,-0.23943 0,-0.13264 -0.04651,-0.22393 -0.04479,-0.0913 -0.125746,-0.14642 -0.08957,-0.0655 -0.218764,-0.0913 -0.127468,-0.0276 -0.285943,-0.0276 -0.151584,0 -0.292833,0.0207 -0.139526,0.0207 -0.241156,0.0413 v -1.3212 h 1.543402 v 0.30145 h -1.210951 v 0.68213 q 0.07407,-0.007 0.151584,-0.0103 0.07751,-0.003 0.134359,-0.003 0.208428,0 0.36518,0.0362 0.156752,0.0344 0.287666,0.12402 0.137804,0.0947 0.213596,0.2446 0.07579,0.14987 0.07579,0.37552 z"
         style="stroke-width:0.26458332"
         id="path5183"
         inkscape:connector-curvature="0" />
    </g>
    <g
       aria-label="44"
       style="font-style:normal;font-weight:normal;font-size:3.52777767px;line-height:1.25;font-family:sans-serif;letter-spacing:0px;word-spacing:0px;fill:#000000;fill-opacity:1;stroke:none;stroke-width:0.26458332"
       id="text4775-33">
      <path
         d="m 55.746469,260.2391 h -0.380683 v 0.72175 H 55.035057 V 260.2391 H 53.80688 v -0.39619 l 1.241957,-1.44694 h 0.316949 v 1.56752 h 0.380683 z m -0.711412,-0.27561 v -1.15755 l -0.99391,1.15755 z"
         style="stroke-width:0.26458332"
         id="path5176"
         inkscape:connector-curvature="0" />
      <path
         d="m 57.992671,260.2391 h -0.380683 v 0.72175 h -0.330729 v -0.72175 h -1.228177 v -0.39619 l 1.241957,-1.44694 h 0.316949 v 1.56752 h 0.380683 z m -0.711412,-0.27561 v -1.15755 l -0.99391,1.15755 z"
         style="stroke-width:0.26458332"
         id="path5178"
         inkscape:connector-curvature="0" />
    </g>
    <g
       aria-label="43"
       style="font-style:normal;font-weight:normal;font-size:3.52777767px;line-height:1.25;font-family:sans-serif;letter-spacing:0px;word-spacing:0px;fill:#000000;fill-opacity:1;stroke:none;stroke-width:0.26458332"
       id="text4775-7">
      <path
         d="m 55.841211,263.04385 h -0.380683 v 0.72174 h -0.33073 v -0.72174 h -1.228176 v -0.39619 l 1.241957,-1.44694 h 0.316949 v 1.56752 h 0.380683 z m -0.711413,-0.27561 v -1.15755 l -0.99391,1.15755 z"
         style="stroke-width:0.26458332"
         id="path5171"
         inkscape:connector-curvature="0" />
      <path
         d="m 57.803192,262.53053 q 0.08268,0.0741 0.136082,0.18603 0.0534,0.11197 0.0534,0.28939 0,0.1757 -0.06374,0.32212 -0.06373,0.14641 -0.179144,0.25493 -0.129192,0.12058 -0.304891,0.17915 -0.173978,0.0568 -0.382406,0.0568 -0.213596,0 -0.420302,-0.0517 -0.206705,-0.05 -0.339342,-0.11025 v -0.36001 h 0.02584 q 0.146416,0.0965 0.344509,0.1602 0.198093,0.0637 0.382406,0.0637 0.10852,0 0.230821,-0.0362 0.122301,-0.0362 0.198093,-0.1068 0.07924,-0.0758 0.117133,-0.16709 0.03962,-0.0913 0.03962,-0.23082 0,-0.1378 -0.04479,-0.22737 -0.04306,-0.0913 -0.120579,-0.14298 -0.07751,-0.0534 -0.187757,-0.0723 -0.110243,-0.0207 -0.237712,-0.0207 H 56.89541 v -0.28595 h 0.120578 q 0.261827,0 0.416857,-0.10852 0.156752,-0.11024 0.156752,-0.32039 0,-0.093 -0.03962,-0.16192 -0.03962,-0.0706 -0.110243,-0.11541 -0.07407,-0.0448 -0.158474,-0.062 -0.08441,-0.0172 -0.191203,-0.0172 -0.163642,0 -0.347955,0.0586 -0.184312,0.0586 -0.347955,0.16536 h -0.01723 v -0.36001 q 0.122301,-0.0603 0.325562,-0.11024 0.204983,-0.0517 0.396185,-0.0517 0.187758,0 0.33073,0.0344 0.142971,0.0345 0.258382,0.11025 0.124023,0.0827 0.187757,0.19981 0.06373,0.11713 0.06373,0.27389 0,0.21359 -0.151584,0.37379 -0.149862,0.15847 -0.354845,0.19981 v 0.0241 q 0.08268,0.0138 0.18948,0.0586 0.106798,0.0431 0.180867,0.10852 z"
         style="stroke-width:0.26458332"
         id="path5173"
         inkscape:connector-curvature="0" />
    </g>
    <g
       aria-label="42"
       style="font-style:normal;font-weight:normal;font-size:3.52777767px;line-height:1.25;font-family:sans-serif;letter-spacing:0px;word-spacing:0px;fill:#000000;fill-opacity:1;stroke:none;stroke-width:0.26458332"
       id="text4775-88">
      <path
         d="m 55.805036,265.87527 h -0.380683 v 0.72175 h -0.330729 v -0.72175 h -1.228177 v -0.39619 l 1.241957,-1.44694 h 0.316949 v 1.56752 h 0.380683 z m -0.711412,-0.27561 v -1.15755 l -0.99391,1.15755 z"
         style="stroke-width:0.26458332"
         id="path5166"
         inkscape:connector-curvature="0" />
      <path
         d="M 57.992671,266.59702 H 56.256343 V 266.237 q 0.180868,-0.15503 0.361735,-0.31006 0.18259,-0.15502 0.339342,-0.30833 0.330729,-0.3204 0.45303,-0.50815 0.122301,-0.18948 0.122301,-0.40825 0,-0.19981 -0.132636,-0.31178 -0.130914,-0.11369 -0.366903,-0.11369 -0.156751,0 -0.339342,0.0551 -0.18259,0.0551 -0.356567,0.1688 h -0.01722 v -0.36173 q 0.122301,-0.0603 0.325561,-0.11024 0.204983,-0.05 0.396186,-0.05 0.394464,0 0.618395,0.19121 0.223931,0.18948 0.223931,0.51504 0,0.14641 -0.0379,0.27388 -0.03617,0.12575 -0.108521,0.23944 -0.06718,0.10679 -0.158474,0.21015 -0.08957,0.10335 -0.218764,0.2291 -0.184312,0.18086 -0.380683,0.3514 -0.19637,0.16881 -0.366902,0.3135 h 1.37976 z"
         style="stroke-width:0.26458332"
         id="path5168"
         inkscape:connector-curvature="0" />
    </g>
    <g
       aria-label="41"
       style="font-style:normal;font-weight:normal;font-size:3.52777767px;line-height:1.25;font-family:sans-serif;letter-spacing:0px;word-spacing:0px;fill:#000000;fill-opacity:1;stroke:none;stroke-width:0.26458332"
       id="text4775-34">
      <path
         d="m 55.951455,268.65765 h -0.380683 v 0.72174 h -0.330729 v -0.72174 h -1.228176 v -0.39619 l 1.241957,-1.44694 h 0.316948 v 1.56752 h 0.380683 z m -0.711412,-0.27561 v -1.15755 l -0.99391,1.15755 z"
         style="stroke-width:0.26458332"
         id="path5161"
         inkscape:connector-curvature="0" />
      <path
         d="m 57.992674,269.37939 h -1.388373 v -0.26182 h 0.53399 v -1.71911 h -0.53399 v -0.23426 q 0.10852,0 0.232544,-0.0172 0.124023,-0.019 0.187758,-0.0534 0.07924,-0.0431 0.124023,-0.10852 0.04651,-0.0672 0.0534,-0.17914 h 0.266995 v 2.31166 h 0.523654 z"
         style="stroke-width:0.26458332"
         id="path5163"
         inkscape:connector-curvature="0" />
    </g>
    <g
       aria-label="40"
       style="font-style:normal;font-weight:normal;font-size:3.52777767px;line-height:1.25;font-family:sans-serif;letter-spacing:0px;word-spacing:0px;fill:#000000;fill-opacity:1;stroke:none;stroke-width:0.26458332"
       id="text4775-2">
      <path
         d="m 55.808481,271.45721 h -0.380684 v 0.72175 h -0.330729 v -0.72175 h -1.228176 v -0.39619 l 1.241957,-1.44694 h 0.316948 v 1.56752 h 0.380684 z m -0.711413,-0.27561 v -1.15755 l -0.99391,1.15755 z"
         style="stroke-width:0.26458332"
         id="path5156"
         inkscape:connector-curvature="0" />
      <path
         d="m 57.992671,270.89566 q 0,0.69074 -0.217041,1.01458 -0.215318,0.32211 -0.670071,0.32211 -0.461643,0 -0.675239,-0.32728 -0.211873,-0.32728 -0.211873,-1.00597 0,-0.68385 0.215318,-1.00941 0.215319,-0.32728 0.671794,-0.32728 0.461643,0 0.673516,0.33245 0.213596,0.33073 0.213596,1.0008 z m -0.45303,0.78203 q 0.06029,-0.13952 0.08096,-0.32728 0.02239,-0.18948 0.02239,-0.45475 0,-0.26183 -0.02239,-0.45476 -0.02067,-0.19292 -0.08268,-0.32728 -0.06029,-0.13264 -0.165364,-0.19982 -0.103353,-0.0672 -0.266995,-0.0672 -0.16192,0 -0.268717,0.0672 -0.105076,0.0672 -0.167088,0.20327 -0.05857,0.12746 -0.08096,0.33245 -0.02067,0.20498 -0.02067,0.44958 0,0.26872 0.01895,0.44959 0.01895,0.18086 0.08096,0.32384 0.05684,0.13435 0.160197,0.20498 0.105075,0.0706 0.27733,0.0706 0.161919,0 0.268717,-0.0672 0.106798,-0.0672 0.165365,-0.20326 z"
         style="stroke-width:0.26458332"
         id="path5158"
         inkscape:connector-curvature="0" />
    </g>
    <g
       aria-label="39"
       style="font-style:normal;font-weight:normal;font-size:3.52777767px;line-height:1.25;font-family:sans-serif;letter-spacing:0px;word-spacing:0px;fill:#000000;fill-opacity:1;stroke:none;stroke-width:0.26458332"
       id="text4775-79">
      <path
         d="m 55.52426,273.74949 q 0.08268,0.0741 0.136081,0.18604 0.0534,0.11196 0.0534,0.28938 0,0.1757 -0.06373,0.32212 -0.06373,0.14642 -0.179145,0.25494 -0.129191,0.12058 -0.304891,0.17914 -0.173977,0.0568 -0.382405,0.0568 -0.213596,0 -0.420302,-0.0517 -0.206706,-0.05 -0.339342,-0.11024 v -0.36001 h 0.02584 q 0.146417,0.0965 0.34451,0.16019 0.198093,0.0637 0.382405,0.0637 0.108521,0 0.230822,-0.0362 0.122301,-0.0362 0.198093,-0.1068 0.07924,-0.0758 0.117133,-0.16708 0.03962,-0.0913 0.03962,-0.23082 0,-0.13781 -0.04479,-0.22738 -0.04306,-0.0913 -0.120578,-0.14297 -0.07751,-0.0534 -0.187758,-0.0724 -0.110243,-0.0207 -0.237711,-0.0207 h -0.155029 v -0.28594 h 0.120578 q 0.261827,0 0.416856,-0.10852 0.156752,-0.11025 0.156752,-0.3204 0,-0.093 -0.03962,-0.16192 -0.03962,-0.0706 -0.110243,-0.11541 -0.07407,-0.0448 -0.158475,-0.062 -0.0844,-0.0172 -0.191203,-0.0172 -0.163642,0 -0.347954,0.0586 -0.184313,0.0586 -0.347955,0.16537 h -0.01722 v -0.36001 q 0.122301,-0.0603 0.325561,-0.11025 0.204983,-0.0517 0.396186,-0.0517 0.187758,0 0.330729,0.0344 0.142972,0.0344 0.258382,0.11024 0.124024,0.0827 0.187758,0.19982 0.06373,0.11713 0.06373,0.27388 0,0.2136 -0.151584,0.37379 -0.149861,0.15848 -0.354845,0.19982 v 0.0241 q 0.08268,0.0138 0.189481,0.0586 0.106798,0.0431 0.180867,0.10852 z"
         style="stroke-width:0.26458332"
         id="path5151"
         inkscape:connector-curvature="0" />
      <path
         d="m 57.992671,273.54795 q 0,0.3359 -0.07751,0.60979 -0.07579,0.27388 -0.230821,0.46681 -0.156752,0.19637 -0.392741,0.30316 -0.235989,0.1068 -0.55466,0.1068 -0.08957,0 -0.16881,-0.0103 -0.07924,-0.009 -0.141249,-0.0293 v -0.329 h 0.01723 q 0.04995,0.0258 0.141249,0.05 0.0913,0.0224 0.20326,0.0224 0.380683,0 0.596002,-0.22737 0.217041,-0.2291 0.251492,-0.63045 -0.160197,0.0965 -0.301446,0.1378 -0.141249,0.0413 -0.308336,0.0413 -0.158475,0 -0.287666,-0.031 -0.127468,-0.031 -0.256659,-0.12057 -0.151584,-0.10508 -0.229099,-0.267 -0.07579,-0.16192 -0.07579,-0.38757 0,-0.39274 0.258382,-0.63907 0.258382,-0.24632 0.630452,-0.24632 0.186036,0 0.34451,0.0586 0.158474,0.0568 0.27733,0.17226 0.146417,0.14297 0.225654,0.36862 0.07924,0.22394 0.07924,0.5805 z m -0.347955,-0.0741 q 0,-0.26699 -0.05512,-0.42891 -0.05512,-0.16192 -0.151584,-0.25149 -0.08096,-0.0775 -0.173978,-0.11025 -0.09302,-0.0344 -0.201538,-0.0344 -0.248047,0 -0.392741,0.15503 -0.142971,0.15503 -0.142971,0.43581 0,0.16364 0.04651,0.26699 0.04651,0.10336 0.156752,0.18087 0.07751,0.0534 0.170532,0.0724 0.09302,0.0172 0.206706,0.0172 0.134358,0 0.272162,-0.0362 0.137804,-0.0362 0.258382,-0.10508 0.0017,-0.0362 0.0034,-0.0706 0.0034,-0.0362 0.0034,-0.0913 z"
         style="stroke-width:0.26458332"
         id="path5153"
         inkscape:connector-curvature="0" />
    </g>
    <g
       aria-label="38"
       style="font-style:normal;font-weight:normal;font-size:3.52777767px;line-height:1.25;font-family:sans-serif;letter-spacing:0px;word-spacing:0px;fill:#000000;fill-opacity:1;stroke:none;stroke-width:0.26458332"
       id="text4775-32">
      <path
         d="m 55.501868,276.55424 q 0.08268,0.0741 0.136081,0.18604 0.0534,0.11196 0.0534,0.28938 0,0.1757 -0.06373,0.32212 -0.06373,0.14642 -0.179145,0.25494 -0.129191,0.12057 -0.304891,0.17914 -0.173977,0.0568 -0.382406,0.0568 -0.213596,0 -0.420301,-0.0517 -0.206706,-0.0499 -0.339342,-0.11024 v -0.36002 h 0.02584 q 0.146417,0.0965 0.34451,0.1602 0.198093,0.0637 0.382405,0.0637 0.108521,0 0.230822,-0.0362 0.1223,-0.0362 0.198093,-0.1068 0.07924,-0.0758 0.117133,-0.16708 0.03962,-0.0913 0.03962,-0.23083 0,-0.1378 -0.04479,-0.22737 -0.04306,-0.0913 -0.120578,-0.14297 -0.07752,-0.0534 -0.187758,-0.0724 -0.110243,-0.0207 -0.237711,-0.0207 h -0.15503 v -0.28594 h 0.120579 q 0.261827,0 0.416856,-0.10852 0.156752,-0.11025 0.156752,-0.3204 0,-0.093 -0.03962,-0.16192 -0.03962,-0.0706 -0.110243,-0.11541 -0.07407,-0.0448 -0.158474,-0.062 -0.08441,-0.0172 -0.191203,-0.0172 -0.163642,0 -0.347955,0.0586 -0.184312,0.0586 -0.347954,0.16537 h -0.01723 v -0.36002 q 0.122301,-0.0603 0.325562,-0.11024 0.204983,-0.0517 0.396186,-0.0517 0.187758,0 0.330729,0.0345 0.142971,0.0344 0.258382,0.11024 0.124024,0.0827 0.187758,0.19981 0.06373,0.11714 0.06373,0.27389 0,0.21359 -0.151584,0.37379 -0.149862,0.15848 -0.354845,0.19982 v 0.0241 q 0.08268,0.0138 0.18948,0.0586 0.106798,0.0431 0.180868,0.10852 z"
         style="stroke-width:0.26458332"
         id="path5146"
         inkscape:connector-curvature="0" />
      <path
         d="m 57.992672,277.07445 q 0,0.33245 -0.260105,0.55294 -0.258382,0.22048 -0.651123,0.22048 -0.416856,0 -0.664903,-0.21532 -0.246325,-0.21531 -0.246325,-0.55121 0,-0.2136 0.124024,-0.38585 0.124023,-0.17398 0.349677,-0.27561 v -0.0103 q -0.206706,-0.11025 -0.306613,-0.24116 -0.09819,-0.13091 -0.09819,-0.32728 0,-0.28939 0.237712,-0.48232 0.237711,-0.19292 0.604614,-0.19292 0.384128,0 0.613227,0.18431 0.229099,0.18431 0.229099,0.46853 0,0.17398 -0.108521,0.34279 -0.10852,0.16709 -0.318671,0.26183 v 0.0103 q 0.241157,0.10335 0.368625,0.25494 0.127469,0.15158 0.127469,0.38585 z m -0.408244,-1.25229 q 0,-0.18432 -0.142971,-0.29284 -0.141249,-0.11024 -0.361735,-0.11024 -0.217041,0 -0.356568,0.10335 -0.137804,0.10336 -0.137804,0.27906 0,0.12402 0.0689,0.21532 0.07062,0.0896 0.211874,0.16019 0.06373,0.031 0.18259,0.081 0.120578,0.05 0.234266,0.0827 0.170532,-0.11368 0.235989,-0.23599 0.06546,-0.1223 0.06546,-0.28249 z m 0.0534,1.28502 q 0,-0.15848 -0.07062,-0.25322 -0.0689,-0.0965 -0.272163,-0.19292 -0.08096,-0.0379 -0.177422,-0.0706 -0.09646,-0.0327 -0.25666,-0.0913 -0.155029,0.0844 -0.249769,0.2291 -0.09302,0.14469 -0.09302,0.32728 0,0.23255 0.160197,0.38413 0.160197,0.15158 0.406521,0.15158 0.251492,0 0.401354,-0.12919 0.151584,-0.12919 0.151584,-0.35484 z"
         style="stroke-width:0.26458332"
         id="path5148"
         inkscape:connector-curvature="0" />
    </g>
    <g
       aria-label="37"
       style="font-style:normal;font-weight:normal;font-size:3.52777767px;line-height:1.25;font-family:sans-serif;letter-spacing:0px;word-spacing:0px;fill:#000000;fill-opacity:1;stroke:none;stroke-width:0.26458332"
       id="text4775-6">
      <path
         d="m 55.513926,279.35899 q 0.08268,0.0741 0.136081,0.18603 0.0534,0.11197 0.0534,0.28939 0,0.1757 -0.06373,0.32212 -0.06373,0.14641 -0.179145,0.25494 -0.129191,0.12057 -0.304891,0.17914 -0.173977,0.0568 -0.382405,0.0568 -0.213596,0 -0.420302,-0.0517 -0.206706,-0.05 -0.339342,-0.11025 v -0.36001 h 0.02584 q 0.146417,0.0965 0.34451,0.1602 0.198093,0.0637 0.382405,0.0637 0.108521,0 0.230822,-0.0362 0.122301,-0.0362 0.198093,-0.1068 0.07924,-0.0758 0.117133,-0.16709 0.03962,-0.0913 0.03962,-0.23082 0,-0.1378 -0.04479,-0.22737 -0.04306,-0.0913 -0.120578,-0.14297 -0.07751,-0.0534 -0.187758,-0.0723 -0.110243,-0.0207 -0.237711,-0.0207 h -0.155029 v -0.28594 h 0.120578 q 0.261827,0 0.416856,-0.10853 0.156752,-0.11024 0.156752,-0.32039 0,-0.093 -0.03962,-0.16192 -0.03962,-0.0706 -0.110243,-0.11541 -0.07407,-0.0448 -0.158475,-0.062 -0.0844,-0.0172 -0.191203,-0.0172 -0.163642,0 -0.347954,0.0586 -0.184313,0.0586 -0.347955,0.16536 h -0.01723 v -0.36001 q 0.122301,-0.0603 0.325561,-0.11024 0.204983,-0.0517 0.396186,-0.0517 0.187758,0 0.330729,0.0344 0.142972,0.0345 0.258382,0.11025 0.124024,0.0827 0.187758,0.19981 0.06373,0.11714 0.06373,0.27389 0,0.21359 -0.151584,0.37379 -0.149861,0.15847 -0.354845,0.19982 v 0.0241 q 0.08268,0.0138 0.189481,0.0586 0.106798,0.0431 0.180867,0.10852 z"
         style="stroke-width:0.26458332"
         id="path5141"
         inkscape:connector-curvature="0" />
      <path
         d="m 57.992672,278.41331 -1.160997,2.18075 H 56.46305 l 1.235067,-2.26343 h -1.460721 v -0.30145 h 1.755276 z"
         style="stroke-width:0.26458332"
         id="path5143"
         inkscape:connector-curvature="0" />
    </g>
    <g
       aria-label="36"
       style="font-style:normal;font-weight:normal;font-size:3.52777767px;line-height:1.25;font-family:sans-serif;letter-spacing:0px;word-spacing:0px;fill:#000000;fill-opacity:1;stroke:none;stroke-width:0.26458332"
       id="text4775-9">
      <path
         d="m 55.48292,282.16374 q 0.08268,0.0741 0.136082,0.18603 0.0534,0.11197 0.0534,0.28939 0,0.1757 -0.06374,0.32212 -0.06373,0.14641 -0.179145,0.25493 -0.129191,0.12058 -0.304891,0.17915 -0.173977,0.0568 -0.382405,0.0568 -0.213596,0 -0.420302,-0.0517 -0.206706,-0.05 -0.339342,-0.11025 v -0.36001 h 0.02584 q 0.146417,0.0965 0.34451,0.1602 0.198093,0.0637 0.382406,0.0637 0.10852,0 0.230821,-0.0362 0.122301,-0.0362 0.198093,-0.1068 0.07924,-0.0758 0.117133,-0.16709 0.03962,-0.0913 0.03962,-0.23082 0,-0.1378 -0.04479,-0.22737 -0.04306,-0.0913 -0.120579,-0.14298 -0.07751,-0.0534 -0.187757,-0.0723 -0.110244,-0.0207 -0.237712,-0.0207 h -0.155029 v -0.28595 h 0.120578 q 0.261827,0 0.416857,-0.10852 0.156751,-0.11024 0.156751,-0.32039 0,-0.093 -0.03962,-0.16192 -0.03962,-0.0706 -0.110243,-0.11541 -0.07407,-0.0448 -0.158475,-0.062 -0.08441,-0.0172 -0.191202,-0.0172 -0.163642,0 -0.347955,0.0586 -0.184313,0.0586 -0.347955,0.16536 h -0.01722 v -0.36001 q 0.122301,-0.0603 0.325561,-0.11024 0.204983,-0.0517 0.396186,-0.0517 0.187758,0 0.330729,0.0344 0.142972,0.0344 0.258383,0.11025 0.124023,0.0827 0.187757,0.19981 0.06374,0.11713 0.06374,0.27389 0,0.21359 -0.151585,0.37379 -0.149861,0.15847 -0.354844,0.19981 v 0.0241 q 0.08268,0.0138 0.18948,0.0586 0.106798,0.0431 0.180867,0.10852 z"
         style="stroke-width:0.26458332"
         id="path5136"
         inkscape:connector-curvature="0" />
      <path
         d="m 57.992672,282.56681 q 0,0.39102 -0.258382,0.63907 -0.256659,0.24632 -0.630452,0.24632 -0.189481,0 -0.34451,-0.0586 -0.155029,-0.0586 -0.273885,-0.17398 -0.148139,-0.14297 -0.229099,-0.37896 -0.07924,-0.23599 -0.07924,-0.56844 0,-0.34107 0.07235,-0.60462 0.07407,-0.26355 0.234267,-0.46853 0.151584,-0.19465 0.391018,-0.30317 0.239434,-0.11024 0.558105,-0.11024 0.101631,0 0.170533,0.009 0.0689,0.009 0.139526,0.031 v 0.329 h -0.01723 q -0.04823,-0.0258 -0.146416,-0.0482 -0.09646,-0.0241 -0.198093,-0.0241 -0.370348,0 -0.590834,0.23254 -0.220486,0.23082 -0.25666,0.62529 0.144694,-0.0879 0.284221,-0.13264 0.141249,-0.0465 0.325561,-0.0465 0.163642,0 0.287666,0.031 0.125746,0.0293 0.256659,0.12058 0.151585,0.10507 0.227377,0.26527 0.07751,0.16019 0.07751,0.38929 z m -0.349677,0.0138 q 0,-0.16019 -0.04823,-0.26527 -0.04651,-0.10507 -0.15503,-0.18259 -0.07924,-0.0551 -0.175699,-0.0723 -0.09646,-0.0172 -0.201538,-0.0172 -0.146417,0 -0.272163,0.0344 -0.125746,0.0344 -0.258382,0.1068 -0.0034,0.0379 -0.0052,0.0741 -0.0017,0.0344 -0.0017,0.0879 0,0.27216 0.05512,0.43063 0.05684,0.15676 0.155029,0.24805 0.07924,0.0758 0.170533,0.11197 0.09302,0.0344 0.201538,0.0344 0.249769,0 0.392741,-0.15159 0.142971,-0.1533 0.142971,-0.43925 z"
         style="stroke-width:0.26458332"
         id="path5138"
         inkscape:connector-curvature="0" />
    </g>
    <g
       aria-label="35"
       style="font-style:normal;font-weight:normal;font-size:3.52777767px;line-height:1.25;font-family:sans-serif;letter-spacing:0px;word-spacing:0px;fill:#000000;fill-opacity:1;stroke:none;stroke-width:0.26458332"
       id="text4775-5">
      <path
         d="m 55.541487,284.96849 q 0.08268,0.0741 0.136082,0.18603 0.0534,0.11197 0.0534,0.28939 0,0.1757 -0.06373,0.32212 -0.06373,0.14641 -0.179145,0.25493 -0.129191,0.12058 -0.304891,0.17915 -0.173977,0.0568 -0.382405,0.0568 -0.213596,0 -0.420302,-0.0517 -0.206706,-0.0499 -0.339342,-0.11024 v -0.36001 h 0.02584 q 0.146417,0.0965 0.34451,0.1602 0.198093,0.0637 0.382406,0.0637 0.10852,0 0.230821,-0.0362 0.122301,-0.0362 0.198093,-0.1068 0.07924,-0.0758 0.117133,-0.16709 0.03962,-0.0913 0.03962,-0.23082 0,-0.1378 -0.04479,-0.22738 -0.04306,-0.0913 -0.120579,-0.14297 -0.07751,-0.0534 -0.187757,-0.0723 -0.110243,-0.0207 -0.237712,-0.0207 H 54.63371 v -0.28595 h 0.120578 q 0.261827,0 0.416857,-0.10852 0.156751,-0.11024 0.156751,-0.32039 0,-0.093 -0.03962,-0.16192 -0.03962,-0.0706 -0.110243,-0.11541 -0.07407,-0.0448 -0.158475,-0.062 -0.0844,-0.0172 -0.191202,-0.0172 -0.163642,0 -0.347955,0.0586 -0.184313,0.0586 -0.347955,0.16536 h -0.01723 v -0.36001 q 0.122301,-0.0603 0.325561,-0.11024 0.204984,-0.0517 0.396186,-0.0517 0.187758,0 0.330729,0.0344 0.142972,0.0344 0.258383,0.11024 0.124023,0.0827 0.187757,0.19982 0.06374,0.11713 0.06374,0.27388 0,0.2136 -0.151585,0.3738 -0.149861,0.15847 -0.354844,0.19981 v 0.0241 q 0.08268,0.0138 0.18948,0.0586 0.106798,0.0431 0.180867,0.10852 z"
         style="stroke-width:0.26458332"
         id="path5131"
         inkscape:connector-curvature="0" />
      <path
         d="m 57.992673,285.38879 q 0,0.17914 -0.06546,0.34278 -0.06546,0.16365 -0.179145,0.27561 -0.124023,0.12058 -0.296278,0.18604 -0.170532,0.0637 -0.396186,0.0637 -0.210151,0 -0.404799,-0.0448 -0.194648,-0.0431 -0.329007,-0.10507 v -0.36346 h 0.02412 q 0.141249,0.0896 0.330729,0.15331 0.189481,0.062 0.372071,0.062 0.1223,0 0.235989,-0.0344 0.11541,-0.0345 0.204983,-0.12058 0.07579,-0.0741 0.113688,-0.17742 0.03962,-0.10335 0.03962,-0.23944 0,-0.13263 -0.04651,-0.22393 -0.04479,-0.0913 -0.125746,-0.14641 -0.08957,-0.0655 -0.218764,-0.0913 -0.127468,-0.0276 -0.285943,-0.0276 -0.151584,0 -0.292833,0.0207 -0.139526,0.0207 -0.241156,0.0413 v -1.32119 h 1.543402 v 0.30144 h -1.210951 v 0.68213 q 0.07407,-0.007 0.151584,-0.0103 0.07751,-0.003 0.134359,-0.003 0.208428,0 0.36518,0.0362 0.156752,0.0344 0.287666,0.12402 0.137804,0.0947 0.213596,0.2446 0.07579,0.14986 0.07579,0.37552 z"
         style="stroke-width:0.26458332"
         id="path5133"
         inkscape:connector-curvature="0" />
    </g>
    <g
       aria-label="34"
       style="font-style:normal;font-weight:normal;font-size:3.52777767px;line-height:1.25;font-family:sans-serif;letter-spacing:0px;word-spacing:0px;fill:#000000;fill-opacity:1;stroke:none;stroke-width:0.26458332"
       id="text4775-4">
      <path
         d="m 55.462248,287.77323 q 0.08268,0.0741 0.136082,0.18604 0.0534,0.11196 0.0534,0.28939 0,0.1757 -0.06374,0.32211 -0.06373,0.14642 -0.179145,0.25494 -0.129191,0.12058 -0.30489,0.17915 -0.173978,0.0568 -0.382406,0.0568 -0.213596,0 -0.420302,-0.0517 -0.206705,-0.05 -0.339342,-0.11024 v -0.36001 h 0.02584 q 0.146416,0.0965 0.344509,0.16019 0.198093,0.0637 0.382406,0.0637 0.10852,0 0.230821,-0.0362 0.122301,-0.0362 0.198093,-0.1068 0.07924,-0.0758 0.117133,-0.16709 0.03962,-0.0913 0.03962,-0.23082 0,-0.1378 -0.04479,-0.22738 -0.04306,-0.0913 -0.120579,-0.14297 -0.07751,-0.0534 -0.187757,-0.0723 -0.110243,-0.0207 -0.237712,-0.0207 H 54.55446 v -0.28594 h 0.120578 q 0.261827,0 0.416857,-0.10852 0.156752,-0.11024 0.156752,-0.32039 0,-0.093 -0.03962,-0.16192 -0.03962,-0.0706 -0.110243,-0.11541 -0.07407,-0.0448 -0.158475,-0.062 -0.0844,-0.0172 -0.191202,-0.0172 -0.163642,0 -0.347955,0.0586 -0.184313,0.0586 -0.347955,0.16536 h -0.01723 v -0.36001 q 0.122301,-0.0603 0.325561,-0.11025 0.204984,-0.0517 0.396186,-0.0517 0.187758,0 0.33073,0.0344 0.142971,0.0344 0.258382,0.11024 0.124023,0.0827 0.187757,0.19982 0.06373,0.11713 0.06373,0.27388 0,0.2136 -0.151584,0.3738 -0.149862,0.15847 -0.354845,0.19981 v 0.0241 q 0.08268,0.0138 0.18948,0.0586 0.106798,0.0431 0.180867,0.10852 z"
         style="stroke-width:0.26458332"
         id="path5126"
         inkscape:connector-curvature="0" />
      <path
         d="m 57.992671,288.28655 h -0.380683 v 0.72175 h -0.330729 v -0.72175 h -1.228177 v -0.39618 l 1.241957,-1.44694 h 0.316949 v 1.56752 h 0.380683 z m -0.711412,-0.2756 v -1.15756 l -0.99391,1.15756 z"
         style="stroke-width:0.26458332"
         id="path5128"
         inkscape:connector-curvature="0" />
    </g>
    <g
       aria-label="33"
       style="font-style:normal;font-weight:normal;font-size:3.52777767px;line-height:1.25;font-family:sans-serif;letter-spacing:0px;word-spacing:0px;fill:#000000;fill-opacity:1;stroke:none;stroke-width:0.26458332"
       id="text4775-69">
      <path
         d="m 55.55699,290.57798 q 0.08268,0.0741 0.136082,0.18604 0.0534,0.11196 0.0534,0.28939 0,0.1757 -0.06373,0.32211 -0.06373,0.14642 -0.179145,0.25494 -0.129191,0.12058 -0.304891,0.17914 -0.173977,0.0568 -0.382405,0.0568 -0.213596,0 -0.420302,-0.0517 -0.206706,-0.05 -0.339342,-0.11024 v -0.36001 h 0.02584 q 0.146417,0.0965 0.34451,0.16019 0.198093,0.0637 0.382406,0.0637 0.10852,0 0.230821,-0.0362 0.122301,-0.0362 0.198093,-0.10679 0.07924,-0.0758 0.117133,-0.16709 0.03962,-0.0913 0.03962,-0.23082 0,-0.13781 -0.04479,-0.22738 -0.04306,-0.0913 -0.120579,-0.14297 -0.07751,-0.0534 -0.187758,-0.0723 -0.110243,-0.0207 -0.237711,-0.0207 h -0.155029 v -0.28594 h 0.120578 q 0.261827,0 0.416856,-0.10852 0.156752,-0.11024 0.156752,-0.3204 0,-0.093 -0.03962,-0.16191 -0.03962,-0.0706 -0.110243,-0.11542 -0.07407,-0.0448 -0.158475,-0.062 -0.0844,-0.0172 -0.191202,-0.0172 -0.163643,0 -0.347955,0.0586 -0.184313,0.0586 -0.347955,0.16537 h -0.01722 v -0.36001 q 0.122301,-0.0603 0.325561,-0.11025 0.204983,-0.0517 0.396186,-0.0517 0.187758,0 0.330729,0.0344 0.142972,0.0345 0.258383,0.11024 0.124023,0.0827 0.187757,0.19982 0.06374,0.11713 0.06374,0.27388 0,0.2136 -0.151585,0.37379 -0.149861,0.15848 -0.354845,0.19982 v 0.0241 q 0.08268,0.0138 0.189481,0.0586 0.106798,0.0431 0.180867,0.10852 z"
         style="stroke-width:0.26458332"
         id="path5121"
         inkscape:connector-curvature="0" />
      <path
         d="m 57.803192,290.57798 q 0.08268,0.0741 0.136082,0.18604 0.0534,0.11196 0.0534,0.28939 0,0.1757 -0.06374,0.32211 -0.06373,0.14642 -0.179144,0.25494 -0.129192,0.12058 -0.304891,0.17914 -0.173978,0.0568 -0.382406,0.0568 -0.213596,0 -0.420302,-0.0517 -0.206705,-0.05 -0.339342,-0.11024 v -0.36001 h 0.02584 q 0.146416,0.0965 0.344509,0.16019 0.198093,0.0637 0.382406,0.0637 0.10852,0 0.230821,-0.0362 0.122301,-0.0362 0.198093,-0.10679 0.07924,-0.0758 0.117133,-0.16709 0.03962,-0.0913 0.03962,-0.23082 0,-0.13781 -0.04479,-0.22738 -0.04306,-0.0913 -0.120579,-0.14297 -0.07751,-0.0534 -0.187757,-0.0723 -0.110243,-0.0207 -0.237712,-0.0207 H 56.89541 v -0.28594 h 0.120578 q 0.261827,0 0.416857,-0.10852 0.156752,-0.11024 0.156752,-0.3204 0,-0.093 -0.03962,-0.16191 -0.03962,-0.0706 -0.110243,-0.11542 -0.07407,-0.0448 -0.158474,-0.062 -0.08441,-0.0172 -0.191203,-0.0172 -0.163642,0 -0.347955,0.0586 -0.184312,0.0586 -0.347955,0.16537 h -0.01723 v -0.36001 q 0.122301,-0.0603 0.325562,-0.11025 0.204983,-0.0517 0.396185,-0.0517 0.187758,0 0.33073,0.0344 0.142971,0.0345 0.258382,0.11024 0.124023,0.0827 0.187757,0.19982 0.06373,0.11713 0.06373,0.27388 0,0.2136 -0.151584,0.37379 -0.149862,0.15848 -0.354845,0.19982 v 0.0241 q 0.08268,0.0138 0.18948,0.0586 0.106798,0.0431 0.180867,0.10852 z"
         style="stroke-width:0.26458332"
         id="path5123"
         inkscape:connector-curvature="0" />
    </g>
    <g
       aria-label="32"
       style="font-style:normal;font-weight:normal;font-size:3.52777767px;line-height:1.25;font-family:sans-serif;letter-spacing:0px;word-spacing:0px;fill:#000000;fill-opacity:1;stroke:none;stroke-width:0.26458332"
       id="text4775-339">
      <path
         d="m 55.520815,293.38273 q 0.08268,0.0741 0.136082,0.18604 0.0534,0.11196 0.0534,0.28938 0,0.1757 -0.06374,0.32212 -0.06373,0.14642 -0.179145,0.25494 -0.129191,0.12058 -0.30489,0.17914 -0.173978,0.0568 -0.382406,0.0568 -0.213596,0 -0.420302,-0.0517 -0.206705,-0.05 -0.339342,-0.11024 v -0.36002 h 0.02584 q 0.146416,0.0965 0.344509,0.1602 0.198093,0.0637 0.382406,0.0637 0.10852,0 0.230821,-0.0362 0.122301,-0.0362 0.198093,-0.1068 0.07924,-0.0758 0.117133,-0.16708 0.03962,-0.0913 0.03962,-0.23082 0,-0.13781 -0.04479,-0.22738 -0.04306,-0.0913 -0.120579,-0.14297 -0.07751,-0.0534 -0.187757,-0.0724 -0.110243,-0.0207 -0.237712,-0.0207 h -0.155029 v -0.28594 h 0.120578 q 0.261827,0 0.416857,-0.10852 0.156752,-0.11025 0.156752,-0.3204 0,-0.093 -0.03962,-0.16192 -0.03962,-0.0706 -0.110243,-0.11541 -0.07407,-0.0448 -0.158474,-0.062 -0.0844,-0.0172 -0.191203,-0.0172 -0.163642,0 -0.347955,0.0586 -0.184313,0.0586 -0.347955,0.16537 h -0.01722 v -0.36002 q 0.122301,-0.0603 0.325562,-0.11024 0.204983,-0.0517 0.396185,-0.0517 0.187758,0 0.33073,0.0344 0.142971,0.0344 0.258382,0.11024 0.124023,0.0827 0.187757,0.19981 0.06374,0.11714 0.06374,0.27389 0,0.2136 -0.151584,0.37379 -0.149862,0.15848 -0.354845,0.19982 v 0.0241 q 0.08268,0.0138 0.18948,0.0586 0.106798,0.0431 0.180867,0.10852 z"
         style="stroke-width:0.26458332"
         id="path5116"
         inkscape:connector-curvature="0" />
      <path
         d="m 57.992671,294.6178 h -1.736328 v -0.36001 q 0.180868,-0.15503 0.361735,-0.31006 0.18259,-0.15503 0.339342,-0.30834 0.330729,-0.32039 0.45303,-0.50815 0.122301,-0.18948 0.122301,-0.40824 0,-0.19982 -0.132636,-0.31179 -0.130914,-0.11368 -0.366903,-0.11368 -0.156751,0 -0.339342,0.0551 -0.18259,0.0551 -0.356567,0.16881 h -0.01722 v -0.36174 q 0.122301,-0.0603 0.325561,-0.11024 0.204983,-0.05 0.396186,-0.05 0.394464,0 0.618395,0.1912 0.223931,0.18948 0.223931,0.51504 0,0.14642 -0.0379,0.27388 -0.03617,0.12575 -0.108521,0.23944 -0.06718,0.1068 -0.158474,0.21015 -0.08957,0.10335 -0.218764,0.2291 -0.184312,0.18087 -0.380683,0.3514 -0.19637,0.16881 -0.366902,0.3135 h 1.37976 z"
         style="stroke-width:0.26458332"
         id="path5118"
         inkscape:connector-curvature="0" />
    </g>
    <g
       aria-label="31"
       style="font-style:normal;font-weight:normal;font-size:3.52777767px;line-height:1.25;font-family:sans-serif;letter-spacing:0px;word-spacing:0px;fill:#000000;fill-opacity:1;stroke:none;stroke-width:0.26458332"
       id="text4775-339-6">
      <path
         d="m 55.667235,296.18748 q 0.08268,0.0741 0.136081,0.18603 0.0534,0.11197 0.0534,0.28939 0,0.1757 -0.06373,0.32212 -0.06373,0.14642 -0.179145,0.25494 -0.129191,0.12057 -0.304891,0.17914 -0.173977,0.0568 -0.382406,0.0568 -0.213595,0 -0.420301,-0.0517 -0.206706,-0.0499 -0.339342,-0.11024 v -0.36002 h 0.02584 q 0.146417,0.0965 0.34451,0.1602 0.198093,0.0637 0.382405,0.0637 0.108521,0 0.230822,-0.0362 0.122301,-0.0362 0.198093,-0.1068 0.07924,-0.0758 0.117133,-0.16708 0.03962,-0.0913 0.03962,-0.23083 0,-0.1378 -0.04479,-0.22737 -0.04306,-0.0913 -0.120578,-0.14297 -0.07751,-0.0534 -0.187758,-0.0724 -0.110243,-0.0207 -0.237711,-0.0207 h -0.15503 v -0.28594 h 0.120579 q 0.261827,0 0.416856,-0.10852 0.156752,-0.11025 0.156752,-0.3204 0,-0.093 -0.03962,-0.16192 -0.03962,-0.0706 -0.110243,-0.11541 -0.07407,-0.0448 -0.158474,-0.062 -0.0844,-0.0172 -0.191203,-0.0172 -0.163642,0 -0.347954,0.0586 -0.184313,0.0586 -0.347955,0.16537 h -0.01722 v -0.36002 q 0.1223,-0.0603 0.325561,-0.11024 0.204983,-0.0517 0.396186,-0.0517 0.187758,0 0.330729,0.0345 0.142972,0.0345 0.258382,0.11025 0.124024,0.0827 0.187758,0.19981 0.06373,0.11714 0.06373,0.27389 0,0.21359 -0.151584,0.37379 -0.149862,0.15848 -0.354845,0.19982 v 0.0241 q 0.08268,0.0138 0.18948,0.0586 0.106798,0.0431 0.180868,0.10852 z"
         style="stroke-width:0.26458332"
         id="path5111"
         inkscape:connector-curvature="0" />
      <path
         d="m 57.992674,297.42255 h -1.388373 v -0.26183 h 0.53399 v -1.7191 h -0.53399 v -0.23427 q 0.10852,0 0.232544,-0.0172 0.124023,-0.0189 0.187758,-0.0534 0.07924,-0.0431 0.124023,-0.10852 0.04651,-0.0672 0.0534,-0.17915 h 0.266995 v 2.31166 h 0.523654 z"
         style="stroke-width:0.26458332"
         id="path5113"
         inkscape:connector-curvature="0" />
    </g>
    <flowRoot
       xml:space="preserve"
       id="flowRoot4966"
       style="font-style:normal;font-weight:normal;font-size:13.33333302px;line-height:1.25;font-family:sans-serif;letter-spacing:0px;word-spacing:0px;fill:#000000;fill-opacity:1;stroke:none"
       transform="matrix(0.26458333,0,0,0.26458333,0,237)"><flowRegion
         id="flowRegion4968"><rect
           id="rect4970"
           width="290.5"
           height="254.5"
           x="-9.5"
           y="-9.2283478" /></flowRegion><flowPara
         id="flowPara4972"></flowPara></flowRoot>    <path
       style="fill:none;stroke:#000000;stroke-width:0.1;stroke-linecap:butt;stroke-linejoin:miter;stroke-miterlimit:4;stroke-dasharray:none;stroke-opacity:1"
       d="M 1.0583333,239.9823 H 53.379687"
       id="path4974"
       inkscape:connector-curvature="0" />
    <path
       style="fill:none;stroke:#000000;stroke-width:0.1;stroke-linecap:butt;stroke-linejoin:miter;stroke-miterlimit:4;stroke-dasharray:none;stroke-opacity:1"
       d="M 1.0583333,242.83553 H 53.379688"
       id="path4974-5"
       inkscape:connector-curvature="0" />
    <path
       style="fill:none;stroke:#000000;stroke-width:0.1;stroke-linecap:butt;stroke-linejoin:miter;stroke-miterlimit:4;stroke-dasharray:none;stroke-opacity:1"
       d="M 1.0583333,245.68876 H 53.379687"
       id="path4974-56"
       inkscape:connector-curvature="0" />
    <path
       style="fill:none;stroke:#000000;stroke-width:0.1;stroke-linecap:butt;stroke-linejoin:miter;stroke-miterlimit:4;stroke-dasharray:none;stroke-opacity:1"
       d="M 1.0583333,248.54199 H 53.379687"
       id="path4974-8"
       inkscape:connector-curvature="0" />
    <path
       style="fill:none;stroke:#000000;stroke-width:0.1;stroke-linecap:butt;stroke-linejoin:miter;stroke-miterlimit:4;stroke-dasharray:none;stroke-opacity:1"
       d="M 1.0583333,251.39522 H 53.379687"
       id="path4974-0"
       inkscape:connector-curvature="0" />
    <path
       style="fill:none;stroke:#000000;stroke-width:0.1;stroke-linecap:butt;stroke-linejoin:miter;stroke-miterlimit:4;stroke-dasharray:none;stroke-opacity:1"
       d="M 1.0583333,254.24845 H 53.379687"
       id="path4974-7"
       inkscape:connector-curvature="0" />
    <path
       style="fill:none;stroke:#000000;stroke-width:0.1;stroke-linecap:butt;stroke-linejoin:miter;stroke-miterlimit:4;stroke-dasharray:none;stroke-opacity:1"
       d="M 1.0583333,257.10168 H 53.379687"
       id="path4974-08"
       inkscape:connector-curvature="0" />
    <path
       style="fill:none;stroke:#000000;stroke-width:0.1;stroke-linecap:butt;stroke-linejoin:miter;stroke-miterlimit:4;stroke-dasharray:none;stroke-opacity:1"
       d="M 1.0583333,259.95491 H 53.379687"
       id="path4974-81"
       inkscape:connector-curvature="0" />
    <path
       style="fill:none;stroke:#000000;stroke-width:0.1;stroke-linecap:butt;stroke-linejoin:miter;stroke-miterlimit:4;stroke-dasharray:none;stroke-opacity:1"
       d="M 1.0583333,262.80814 H 53.379687"
       id="path4974-73"
       inkscape:connector-curvature="0" />
    <path
       style="fill:none;stroke:#000000;stroke-width:0.1;stroke-linecap:butt;stroke-linejoin:miter;stroke-miterlimit:4;stroke-dasharray:none;stroke-opacity:1"
       d="M 1.0583333,265.66137 H 53.379687"
       id="path4974-3"
       inkscape:connector-curvature="0" />
    <path
       style="fill:none;stroke:#000000;stroke-width:0.1;stroke-linecap:butt;stroke-linejoin:miter;stroke-miterlimit:4;stroke-dasharray:none;stroke-opacity:1"
       d="M 1.0583333,268.5146 H 53.379687"
       id="path4974-2"
       inkscape:connector-curvature="0" />
    <path
       style="fill:none;stroke:#000000;stroke-width:0.1;stroke-linecap:butt;stroke-linejoin:miter;stroke-miterlimit:4;stroke-dasharray:none;stroke-opacity:1"
       d="M 1.0583333,271.36783 H 53.379687"
       id="path4974-23"
       inkscape:connector-curvature="0" />
    <path
       style="fill:none;stroke:#000000;stroke-width:0.1;stroke-linecap:butt;stroke-linejoin:miter;stroke-miterlimit:4;stroke-dasharray:none;stroke-opacity:1"
       d="M 1.0583333,274.22106 H 53.379687"
       id="path4974-52"
       inkscape:connector-curvature="0" />
    <path
       style="fill:none;stroke:#000000;stroke-width:0.1;stroke-linecap:butt;stroke-linejoin:miter;stroke-miterlimit:4;stroke-dasharray:none;stroke-opacity:1"
       d="M 1.0583333,277.07429 H 53.379687"
       id="path4974-4"
       inkscape:connector-curvature="0" />
    <path
       style="fill:none;stroke:#000000;stroke-width:0.1;stroke-linecap:butt;stroke-linejoin:miter;stroke-miterlimit:4;stroke-dasharray:none;stroke-opacity:1"
       d="M 1.0583333,279.92752 H 53.379687"
       id="path4974-6"
       inkscape:connector-curvature="0" />
    <path
       style="fill:none;stroke:#000000;stroke-width:0.1;stroke-linecap:butt;stroke-linejoin:miter;stroke-miterlimit:4;stroke-dasharray:none;stroke-opacity:1"
       d="M 1.0583333,282.78075 H 53.379687"
       id="path4974-85"
       inkscape:connector-curvature="0" />
    <path
       style="fill:none;stroke:#000000;stroke-width:0.1;stroke-linecap:butt;stroke-linejoin:miter;stroke-miterlimit:4;stroke-dasharray:none;stroke-opacity:1"
       d="M 1.0583333,285.63398 H 53.379687"
       id="path4974-1"
       inkscape:connector-curvature="0" />
    <path
       style="fill:none;stroke:#000000;stroke-width:0.1;stroke-linecap:butt;stroke-linejoin:miter;stroke-miterlimit:4;stroke-dasharray:none;stroke-opacity:1"
       d="M 1.0583333,288.48721 H 53.379687"
       id="path4974-31"
       inkscape:connector-curvature="0" />
    <path
       style="fill:none;stroke:#000000;stroke-width:0.1;stroke-linecap:butt;stroke-linejoin:miter;stroke-miterlimit:4;stroke-dasharray:none;stroke-opacity:1"
       d="M 1.0583333,291.34044 H 53.379687"
       id="path4974-78"
       inkscape:connector-curvature="0" />
    <path
       style="fill:none;stroke:#000000;stroke-width:0.1;stroke-linecap:butt;stroke-linejoin:miter;stroke-miterlimit:4;stroke-dasharray:none;stroke-opacity:1"
       d="M 1.0583333,294.19367 H 53.379687"
       id="path4974-565"
       inkscape:connector-curvature="0" />
    <path
       style="fill:none;stroke:#000000;stroke-width:0.1;stroke-linecap:butt;stroke-linejoin:miter;stroke-miterlimit:4;stroke-dasharray:none;stroke-opacity:1"
       d="M 3.3738814,421.11091 H 55.695235"
       id="path4974-01"
       inkscape:connector-curvature="0" />
  </g>
</svg>
